# This file uses centimeters as units for non-parametric coordinates.

mtllib HexCell-triangle.mtl
g default
v 5.000000 0.000000 -0.000000
v 0.000000 0.000000 -8.660254
v -0.000000 0.000000 8.660254
v 5.000000 -32.311882 -0.000000
v 0.000000 -32.311882 -8.660254
v -0.000000 -32.311882 8.660254
v -0.000000 0.000000 -0.000000
v -0.000000 -32.311882 -0.000000
vt 0.200000 1.000000
vt 0.800000 1.000000
vt 1.000000 0.500000
vt 0.800000 1.000000
vt 0.200000 1.000000
vt 1.000000 0.500000
vt 0.800000 1.000000
vt 0.200000 1.000000
vt 1.000000 0.500000
vt 0.650000 0.750000
vt 0.650000 0.750000
vt 0.000000 1.000000
vt 0.268021 1.000000
vt 0.268021 0.000000
vt 0.000000 0.000000
vt 0.000000 1.000000
vt 0.268021 1.000000
vt 0.268021 0.000000
vt 0.000000 0.000000
vn -0.000000 -1.000000 0.000000
vn -0.000000 -1.000000 0.000000
vn 0.000000 -1.000000 0.000000
vn -0.000001 -1.000000 0.000000
vn 1.000000 0.000000 0.000000
vn 1.000000 0.000000 0.000000
vn 0.866025 0.000000 -0.500000
vn 0.866025 0.000000 -0.500000
vn 0.866025 0.000000 0.500000
vn 0.866025 0.000000 0.500000
vn 0.000000 1.000000 0.000000
vn 0.000000 1.000000 0.000000
vn 0.000000 1.000000 0.000000
vn 0.000000 1.000000 0.000000
vn -1.000000 0.000000 -0.000000
vn -1.000000 0.000000 -0.000000
vn -1.000000 0.000000 -0.000000
vn -1.000000 0.000000 -0.000000
vn -1.000000 0.000000 -0.000000
vn -1.000000 0.000000 -0.000000
vn -1.000000 0.000000 -0.000000
vn -1.000000 0.000000 -0.000000
s 1
g pCylinder1
usemtl initialShadingGroup
f 4/7/1 8/11/2 5/8/3
f 6/9/4 8/11/2 4/7/1
s 2
f 1/2/5 4/7/6 5/8/7 2/1/8
f 3/3/9 6/9/10 4/7/6 1/2/5
s 3
f 3/6/11 1/4/12 7/10/13
f 1/4/12 2/5/14 7/10/13
s off
f 7/12/15 2/13/16 5/14/17 8/15/18
f 3/16/19 7/17/20 8/18/21 6/19/22
