# This file uses centimeters as units for non-parametric coordinates.

mtllib HexCellModel.mtl
g default
v 8.660254 0.000000 5.000000
v 8.660254 0.000000 -5.000000
v -0.000000 0.000000 -10.000000
v -8.660254 0.000000 -5.000000
v -8.660254 0.000000 5.000000
v 0.000000 0.000000 10.000000
v 0.000000 0.000000 0.000000
v 8.660254 -32.311882 5.000000
v 8.660254 -32.311882 -5.000000
v 0.000000 -32.311882 0.000000
v -0.000000 -32.311882 -10.000000
v -8.660254 -32.311882 -5.000000
v -8.660254 -32.311882 5.000000
v 0.000000 -32.311882 10.000000
vt 0.800000 0.000000
vt 0.200000 0.000000
vt 0.000000 0.503125
vt 0.200000 1.000000
vt 0.800000 1.000000
vt 1.000000 0.500000
vt 0.500000 0.500000
vt 0.800000 1.000000
vt 0.200000 1.000000
vt 0.500000 0.500000
vt 0.000000 0.503125
vt 0.200000 0.000000
vt 0.800000 0.000000
vt 1.000000 0.500000
vt 0.800000 1.000000
vt 0.200000 1.000000
vt 0.000000 0.503125
vt 0.200000 0.000000
vt 0.800000 0.000000
vt 1.000000 0.500000
vn 0.000000 -1.000000 0.000000
vn 0.000000 -1.000000 0.000000
vn 0.000000 -1.000000 0.000000
vn 0.000000 -1.000000 0.000000
vn 0.000000 -1.000000 0.000000
vn 0.000000 -1.000000 0.000000
vn 0.000000 -1.000000 0.000000
vn 0.000000 1.000000 0.000000
vn 0.000000 1.000000 0.000000
vn 0.000000 1.000000 0.000000
vn 0.000000 1.000000 0.000000
vn 0.000000 1.000000 0.000000
vn 0.000000 1.000000 0.000000
vn 0.000000 1.000000 0.000000
vn 0.866025 0.000000 0.500000
vn 0.866025 0.000000 0.500000
vn 0.866025 0.000000 -0.500000
vn 0.866025 0.000000 -0.500000
vn -0.000000 0.000000 -1.000000
vn -0.000000 0.000000 -1.000000
vn -0.866025 0.000000 -0.500000
vn -0.866025 0.000000 -0.500000
vn -0.866025 0.000000 0.500000
vn -0.866025 0.000000 0.500000
vn 0.000000 0.000000 1.000000
vn 0.000000 0.000000 1.000000
s 1
g pCylinder1
usemtl initialShadingGroup
f 8/15/1 10/7/2 9/16/3
f 9/16/3 10/7/2 11/17/4
f 11/17/4 10/7/2 12/18/5
f 12/18/5 10/7/2 13/19/6
f 13/19/6 10/7/2 14/20/7
f 14/20/7 10/7/2 8/15/1
s 2
f 1/8/8 2/9/9 7/10/10
f 2/9/9 3/11/11 7/10/10
f 3/11/11 4/12/12 7/10/10
f 4/12/12 5/13/13 7/10/10
f 5/13/13 6/14/14 7/10/10
f 6/14/14 1/8/8 7/10/10
s 3
f 1/5/15 8/15/16 9/16/17 2/4/18
f 2/4/18 9/16/17 11/17/19 3/3/20
f 3/3/20 11/17/19 12/18/21 4/2/22
f 4/2/22 12/18/21 13/19/23 5/1/24
f 5/1/24 13/19/23 14/20/25 6/6/26
f 6/6/26 14/20/25 8/15/16 1/5/15
