# This file uses centimeters as units for non-parametric coordinates.

mtllib hut.mtl
g default
v -0.500000 0.000000 0.500000
v 0.500000 0.000000 0.500000
v -0.500000 1.000000 0.500000
v 0.500000 1.000000 0.500000
v -0.500000 1.000000 -0.500000
v 0.500000 1.000000 -0.500000
v -0.500000 0.000000 -0.500000
v 0.500000 0.000000 -0.500000
v -0.500000 1.000000 -0.208607
v -0.500000 0.000000 -0.208607
v 0.500000 0.000000 -0.208607
v 0.500000 1.000000 -0.208607
v -0.500000 1.000000 0.043213
v -0.500000 0.000000 0.043213
v 0.500000 0.000000 0.043213
v 0.500000 1.000000 0.043213
v -0.500000 0.581652 -0.208607
v -0.500000 0.581652 0.043213
v -0.500000 0.581652 0.500000
v 0.500000 0.581652 0.500000
v 0.500000 0.581652 0.043213
v 0.500000 0.581652 -0.208607
v 0.500000 0.581652 -0.500000
v -0.500000 0.581652 -0.500000
v -0.457195 0.581652 0.457195
v 0.457195 0.581652 0.457195
v 0.465050 0.965050 0.465050
v -0.465050 0.965050 0.465050
v 0.457195 0.957195 0.043213
v -0.457195 0.957195 0.043213
v -0.465050 0.965050 -0.465050
v 0.465050 0.965050 -0.465050
v 0.457195 0.581652 -0.457195
v -0.457195 0.581652 -0.457195
v -0.469733 0.030267 0.043213
v 0.457195 0.042805 0.043213
v 0.465050 0.034950 0.465050
v -0.465050 0.034950 0.465050
v 0.439465 0.581652 0.043213
v -0.439465 0.581652 0.043213
v -0.439465 0.581652 -0.208607
v -0.457195 0.957195 -0.208607
v -0.465050 0.034950 -0.465050
v 0.465050 0.034950 -0.465050
v 0.457195 0.042805 -0.208607
v -0.469733 0.030267 -0.208607
v 0.439465 0.581652 -0.208607
v 0.457195 0.957195 -0.208607
vt 0.375000 0.000000
vt 0.625000 0.000000
vt 0.375000 0.250000
vt 0.625000 0.250000
vt 0.375000 0.500000
vt 0.625000 0.500000
vt 0.375000 0.750000
vt 0.625000 0.750000
vt 0.375000 1.000000
vt 0.625000 1.000000
vt 0.875000 0.000000
vt 0.875000 0.250000
vt 0.125000 0.000000
vt 0.125000 0.250000
vt 0.197848 0.250000
vt 0.197848 0.000000
vt 0.375000 0.822848
vt 0.625000 0.822848
vt 0.802152 0.000000
vt 0.802152 0.250000
vt 0.260803 0.250000
vt 0.260803 0.000000
vt 0.375000 0.885803
vt 0.625000 0.885803
vt 0.739197 0.000000
vt 0.739197 0.250000
vt 0.197848 0.145413
vt 0.260803 0.145413
vt 0.375000 0.145413
vt 0.625000 0.145413
vt 0.739197 0.145413
vt 0.802152 0.145413
vt 0.625000 0.604587
vt 0.875000 0.145413
vt 0.125000 0.145413
vt 0.375000 0.604587
vt 0.375000 0.145413
vt 0.625000 0.145413
vt 0.625000 0.250000
vt 0.375000 0.250000
vt 0.375000 0.500000
vt 0.625000 0.500000
vt 0.625000 0.604587
vt 0.375000 0.604587
vt 0.375000 0.885803
vt 0.625000 0.885803
vt 0.625000 1.000000
vt 0.375000 1.000000
vt 0.739197 0.145413
vt 0.739197 0.250000
vt 0.260803 0.145413
vt 0.260803 0.250000
vt 0.125000 0.145413
vt 0.197848 0.145413
vt 0.197848 0.250000
vt 0.125000 0.250000
vt 0.375000 0.750000
vt 0.625000 0.750000
vt 0.625000 0.822848
vt 0.375000 0.822848
vt 0.802152 0.250000
vt 0.802152 0.145413
vt 0.875000 0.145413
vt 0.875000 0.250000
vt 0.260803 0.000000
vt 0.375000 0.000000
vt 0.625000 0.000000
vt 0.739197 0.000000
vt 0.802152 0.000000
vt 0.875000 0.000000
vt 0.125000 0.000000
vt 0.197848 0.000000
vt 0.197848 0.145413
vt 0.260803 0.145413
vt 0.375000 0.885803
vt 0.375000 0.822848
vt 0.260803 0.000000
vt 0.197848 0.000000
vn 0.000000 0.000033 -1.000000
vn 0.000000 0.020483 -0.999790
vn 0.000000 0.020483 -0.999790
vn 0.000000 0.000033 -1.000000
vn 0.000000 0.020483 0.999790
vn 0.000000 0.000033 1.000000
vn 0.000000 0.000033 1.000000
vn 0.000000 0.020483 0.999790
vn -0.009292 0.999954 0.002412
vn -0.006751 0.999970 0.003860
vn -0.006751 0.999970 0.003860
vn -0.009262 0.999954 0.002429
vn -0.999540 0.000055 0.030338
vn -0.998985 0.033364 0.030266
vn -0.999078 0.038484 0.019048
vn -0.999820 -0.000003 0.018989
vn 0.999840 0.003787 0.017462
vn 0.999078 0.038484 0.019048
vn 0.998985 0.033364 0.030266
vn 0.999741 -0.006747 0.021735
vn 0.999330 -0.006785 -0.035958
vn 0.998197 0.033133 -0.050054
vn 0.998874 0.040041 -0.025459
vn 0.999634 0.008711 -0.025598
vn -0.006751 0.999957 -0.006350
vn -0.010124 0.999944 -0.003188
vn -0.010072 0.999944 -0.003237
vn -0.006751 0.999957 -0.006350
vn -0.998874 0.040041 -0.025459
vn -0.998197 0.033133 -0.050054
vn -0.998741 0.000056 -0.050172
vn -0.999682 -0.000004 -0.025228
vn 0.999277 -0.034579 0.015793
vn 0.999277 -0.034579 0.015793
vn 0.000000 -0.014366 -0.999897
vn 0.000000 -0.014366 -0.999897
vn -0.999267 -0.023332 0.030369
vn -0.999456 -0.026884 0.019091
vn -0.999283 -0.027962 -0.025506
vn -0.998469 -0.023169 -0.050222
vn 0.000000 -0.014366 0.999897
vn 0.000000 -0.014366 0.999897
vn 0.999063 -0.034497 -0.026131
vn 0.999063 -0.034498 -0.026131
vn 0.000000 0.000000 1.000000
vn 0.000000 0.000000 1.000000
vn 0.000000 0.000000 1.000000
vn 0.000000 0.000000 1.000000
vn 0.000000 0.000000 -1.000000
vn 0.000000 0.000000 -1.000000
vn 0.000000 0.000000 -1.000000
vn 0.000000 0.000000 -1.000000
vn 0.000000 -1.000000 0.000000
vn 0.000000 -1.000000 0.000000
vn 0.000000 -1.000000 0.000000
vn 0.000000 -1.000000 0.000000
vn 1.000000 0.000000 0.000000
vn 1.000000 0.000000 0.000000
vn 1.000000 0.000000 0.000000
vn 1.000000 0.000000 0.000000
vn -1.000000 0.000000 0.000000
vn -1.000000 0.000000 0.000000
vn -1.000000 0.000000 0.000000
vn -1.000000 0.000000 0.000000
vn -1.000000 0.000000 0.000000
vn -1.000000 0.000000 0.000000
vn -1.000000 0.000000 0.000000
vn -1.000000 0.000000 0.000000
vn 0.000000 -1.000000 0.000000
vn 0.000000 -1.000000 0.000000
vn 0.000000 -1.000000 0.000000
vn 0.000000 -1.000000 0.000000
vn 1.000000 0.000000 0.000000
vn 1.000000 0.000000 0.000000
vn 1.000000 0.000000 0.000000
vn 1.000000 0.000000 0.000000
vn -1.000000 0.000000 0.000000
vn -1.000000 0.000000 0.000000
vn 0.000000 0.000000 1.000000
vn 0.000000 0.000000 1.000000
vn 1.000000 0.000000 0.000000
vn 1.000000 0.000000 0.000000
vn 1.000000 0.000000 0.000000
vn 1.000000 0.000000 0.000000
vn 0.000000 0.000000 -1.000000
vn 0.000000 0.000000 -1.000000
vn -1.000000 0.000000 0.000000
vn -1.000000 0.000000 0.000000
vn 0.000000 -1.000000 0.000000
vn 0.000000 -1.000000 0.000000
vn 0.000000 -1.000000 0.000000
vn 0.000000 -1.000000 0.000000
vn -0.707107 0.707107 0.000000
vn -0.707107 0.707107 0.000000
vn -0.707107 0.707107 0.000000
vn -0.707107 0.707107 0.000000
vn 0.000000 0.000000 -1.000000
vn 0.000000 0.000000 -1.000000
vn 0.000000 0.000000 -1.000000
vn 0.000000 0.000000 -1.000000
vn 0.000000 0.000000 1.000000
vn 0.000000 0.000000 1.000000
vn 0.000000 0.000000 1.000000
vn 0.000000 0.000000 1.000000
s 1
g pCube1
usemtl initialShadingGroup
f 25/29/1 28/3/2 27/4/3 26/30/4
s 2
f 31/5/5 34/36/6 33/33/7 32/6/8
s 3
f 35/75/9 38/9/10 37/10/11 36/24/12
s 4
f 26/30/13 27/4/14 29/26/15 39/31/16
s 5
f 40/74/17 30/21/18 28/3/19 25/29/20
f 34/35/21 31/14/22 42/15/23 41/73/24
s 3
f 43/7/25 46/76/26 45/18/27 44/8/28
s 4
f 48/20/29 32/12/30 33/34/31 47/32/32
s 5
f 41/73/24 42/15/23 30/21/18 40/74/17
s 3
f 46/76/26 35/75/9 36/24/12 45/18/27
s 4
f 29/26/15 48/20/29 47/32/32 39/31/16
s 5
f 35/77/33 40/74/17 25/29/20 38/1/34
s 1
f 38/1/35 25/29/1 26/30/4 37/2/36
s 4
f 37/2/37 26/30/13 39/31/16 36/25/38
f 47/32/32 45/19/39 36/25/38 39/31/16
f 33/34/31 44/11/40 45/19/39 47/32/32
s 2
f 34/36/6 43/7/41 44/8/42 33/33/7
s 5
f 43/13/43 34/35/21 41/73/24 46/78/44
s 7
f 19/37/45 20/38/46 4/39/47 3/40/48
s 8
f 5/41/49 6/42/50 23/43/51 24/44/52
s 9
f 14/45/53 15/46/54 2/47/55 1/48/56
s 10
f 20/38/57 21/49/58 16/50/59 4/39/60
s 11
f 18/51/61 19/37/62 3/40/63 13/52/64
f 24/53/65 17/54/66 9/55/67 5/56/68
s 9
f 7/57/69 8/58/70 11/59/71 10/60/72
s 10
f 12/61/73 22/62/74 23/63/75 6/64/76
s 11
f 17/54/66 18/51/61 13/52/64 9/55/67
s 9
f 10/60/72 11/59/71 15/46/54 14/45/53
s 10
f 16/50/59 21/49/58 22/62/74 12/61/73
s 11
f 14/65/77 1/66/78 19/37/62 18/51/61
s 7
f 1/66/79 2/67/80 20/38/46 19/37/45
s 10
f 2/67/81 15/68/82 21/49/58 20/38/57
f 22/62/74 21/49/58 15/68/82 11/69/83
f 23/63/75 22/62/74 11/69/83 8/70/84
s 8
f 24/44/52 23/43/51 8/58/85 7/57/86
s 11
f 7/71/87 10/72/88 17/54/66 24/53/65
s off
f 17/27/89 41/73/90 40/74/91 18/28/92
f 14/23/93 35/75/94 46/76/95 10/17/96
f 18/28/97 40/74/98 35/77/99 14/22/100
f 10/16/101 46/78/102 41/73/103 17/27/104
